<svg width="13" height="9" viewBox="0 0 13 9" fill="none" xmlns="http://www.w3.org/2000/svg">
<path fill-rule="evenodd" clip-rule="evenodd" d="M8.34203 0.9552C8.57842 0.712122 8.96835 0.710584 9.20665 0.951789L12.324 4.10715C12.4193 4.20361 12.4193 4.35879 12.324 4.45525L9.20665 7.61061C8.96835 7.85182 8.57842 7.85028 8.34203 7.6072C8.12068 7.37959 8.11279 7.01963 8.32397 6.78253L10.5519 4.2812L8.32397 1.77987C8.11279 1.54278 8.12068 1.18282 8.34203 0.9552Z" fill="white"/>
<path fill-rule="evenodd" clip-rule="evenodd" d="M0.773438 4.2812C0.773438 3.97326 1.02307 3.72363 1.33101 3.72363H10.3375C10.6454 3.72363 10.8951 3.97326 10.8951 4.2812C10.8951 4.58914 10.6454 4.83877 10.3375 4.83877H1.33101C1.02307 4.83877 0.773438 4.58914 0.773438 4.2812Z" fill="white"/>
</svg>
