<svg width="9" height="7" viewBox="0 0 9 7" fill="none" xmlns="http://www.w3.org/2000/svg">
<path d="M8.13618 2.0093C8.02233 2.08336 7.67915 2.30332 7.10662 2.66905C6.53407 3.03479 6.09545 3.3164 5.79076 3.51389C5.75729 3.53554 5.68617 3.5826 5.57737 3.65513C5.46855 3.72772 5.37813 3.78637 5.30618 3.83111C5.23418 3.87583 5.14714 3.92601 5.04498 3.98155C4.94284 4.03704 4.84657 4.07878 4.75617 4.10641C4.66575 4.13427 4.58205 4.14807 4.50506 4.14807H4.49494C4.41795 4.14807 4.33421 4.13425 4.2438 4.10641C4.15343 4.07878 4.05707 4.03699 3.95502 3.98155C3.85293 3.92594 3.76589 3.87582 3.69389 3.83111C3.62189 3.78637 3.53154 3.72772 3.42269 3.65513C3.3139 3.58253 3.2427 3.53554 3.20922 3.51389C2.90124 3.3164 2.11769 2.81482 0.858809 2.00921C0.6144 1.85186 0.410204 1.66201 0.246169 1.43977C0.0820103 1.21762 1.81198e-05 0.984582 1.81198e-05 0.740774C1.81198e-05 0.537036 0.0795822 0.362633 0.23864 0.21758C0.397679 0.0724956 0.586042 -6.21668e-06 0.803607 -6.21668e-06H8.19646C8.45426 -6.21668e-06 8.65265 0.0802307 8.7916 0.240704C8.93053 0.401211 9 0.601835 9 0.842562C9 1.03701 8.90789 1.24772 8.72377 1.47457C8.53966 1.70143 8.34373 1.87969 8.13618 2.0093Z" fill="#333333"/>
<path d="M0.502311 2.98598C1.60041 3.67113 2.43422 4.2036 3.00334 4.58328C3.19418 4.71286 3.349 4.81402 3.4679 4.8865C3.58679 4.95904 3.74492 5.03311 3.9425 5.10869C4.14001 5.18439 4.32408 5.22212 4.49487 5.22212H4.50504C4.6758 5.22212 4.85997 5.18439 5.05748 5.10869C5.25499 5.03311 5.41323 4.95904 5.53209 4.8865C5.65091 4.81402 5.80578 4.71286 5.99661 4.58328C6.44865 4.27774 7.28066 3.74523 8.49269 2.98598C8.68359 2.86877 8.85268 2.73442 9 2.58321V6.25914C9 6.46297 8.92135 6.63728 8.76396 6.78235C8.60661 6.92747 8.41741 7 8.19641 7H0.803537C0.582596 7 0.393404 6.92747 0.236035 6.78235C0.0786142 6.63723 0 6.46299 0 6.25914V2.58321C0.144 2.73129 0.311361 2.86564 0.502311 2.98598Z" fill="#333333"/>
</svg>
