<svg width="16" height="24" viewBox="0 0 16 24" fill="none" xmlns="http://www.w3.org/2000/svg">
<path d="M3.293 21.8908L3.293 15.0671L1.03575 12.8298C-0.238641 11.5615 -0.35059 9.54877 0.775256 8.14819L4.22268 3.85917C3.65757 3.47995 3.28518 2.83706 3.28518 2.10923L3.28518 0.703078C3.28513 0.314765 3.60138 -1.57421e-07 3.99149 -1.74473e-07L15.2936 -6.68504e-07C15.6837 -6.85556e-07 16 0.314765 16 0.703077L16 2.10919C16 2.934 15.5215 3.64936 14.8266 3.99586C15.6052 6.09966 16 8.30208 16 10.5509C16 10.8481 16 13.0605 16 13.3581C16 14.5211 15.0494 15.4672 13.8808 15.4672C13.6051 15.4672 13.3417 15.414 13.0998 15.3181C12.8547 16.2132 12.0313 16.8734 11.0553 16.8734C10.7796 16.8734 10.5162 16.8201 10.2743 16.7243C10.0292 17.6193 9.20574 18.2795 8.22981 18.2795C7.98161 18.2795 7.74339 18.2364 7.52185 18.158L7.52185 21.8908C7.52185 23.0538 6.5712 24 5.40269 24L5.39798 24C4.2321 24 3.293 23.0538 3.293 21.8908ZM13.8808 2.81222C14.2703 2.81222 14.5872 2.49684 14.5872 2.10914L14.5872 1.40611L4.69789 1.40611L4.69789 2.10919C4.69789 2.49684 5.01475 2.81227 5.40429 2.81227L13.8808 2.81222ZM5.40269 22.5939C5.79218 22.5939 6.11851 22.2785 6.11851 21.8908L6.11851 13.3651C6.11851 12.9768 6.42535 12.662 6.8155 12.662C7.2056 12.662 7.5219 12.9768 7.5219 13.3651L7.5219 16.1395C7.52237 16.1498 7.52345 16.1599 7.52345 16.1703C7.52345 16.5579 7.84032 16.8734 8.22985 16.8734C8.61934 16.8734 8.93626 16.558 8.93626 16.1703L8.93626 13.3581C8.93626 12.9698 9.25251 12.655 9.64266 12.655C10.0328 12.655 10.3491 12.9697 10.3491 13.3581L10.3491 14.7642C10.3491 15.1518 10.6659 15.4672 11.0555 15.4672C11.445 15.4672 11.7619 15.1519 11.7619 14.7642L11.7619 13.3581C11.7619 12.9698 12.0781 12.655 12.4683 12.655C12.8584 12.655 13.1747 12.9697 13.1747 13.3581C13.1747 13.7457 13.4915 14.0611 13.8811 14.0611C14.2706 14.0611 14.5875 13.7458 14.5875 13.3581C14.5875 13.0603 14.5875 10.8481 14.5875 10.5509C14.5875 8.37473 14.1886 6.24548 13.4015 4.21833L5.74315 4.21833L1.8784 9.02653C1.20289 9.86681 1.2701 11.0745 2.03471 11.8355L3.29304 13.0785C3.29304 10.7037 3.28989 13.0598 3.28989 10.5458C3.28989 10.1575 3.60614 9.84272 3.99629 9.84272C4.38639 9.84272 4.69327 10.1575 4.69327 10.5458C4.69327 10.7 4.69643 21.7363 4.69643 21.8908C4.69643 22.2784 5.01118 22.5938 5.39812 22.5938L5.40269 22.5939Z" fill="white"/>
</svg>
