<svg width="1440" height="279" viewBox="0 0 1440 279" fill="none" xmlns="http://www.w3.org/2000/svg">
<!-- <path d="M-16.5936 74.8746L198.848 110.899L257.777 215.741L360.761 193.618L503.18 210.751L609.575 97.576L759 155.242L945.367 88.0761L1035.94 133.076L1113.5 168.242L1280 147.242L1364.5 202.741L1441.5 144.242" stroke="#9AD5C9" stroke-width="2"/>
<path d="M-15.7362 74.7576L239.467 182.747L344.086 170.035L473.5 183.242L715.557 100.077L867 148.242L1033 100.077L1109.75 201.077L1201.5 127.242L1364.51 235.242L1453.65 166.747" stroke="#97C49C" stroke-width="2"/> -->
<path d="M-16.2046 74.9699L129.112 87.5637L247.942 160.778L315.233 218.391L401 152.242L496.811 119.049L600 181.742L718.794 205.577L868.004 100.242L920 60.7418L1035.5 121.242L1118 132.242L1269.5 244.742L1440 116.742" stroke="#FC6651" stroke-width="2"/>
</svg>
