<svg width="14" height="10" viewBox="0 0 14 10" fill="none" xmlns="http://www.w3.org/2000/svg">
<path fill-rule="evenodd" clip-rule="evenodd" d="M9.03934 1.02865C9.3216 0.738413 9.78718 0.736577 10.0717 1.02458L13.7939 4.79218C13.9077 4.90736 13.9077 5.09264 13.7939 5.20782L10.0717 8.97542C9.78718 9.26342 9.3216 9.26159 9.03934 8.97135C8.77504 8.69956 8.76563 8.26976 9.01777 7.98667L11.678 5L9.01777 2.01333C8.76563 1.73024 8.77504 1.30044 9.03934 1.02865Z" fill="#1E1F21"/>
<path fill-rule="evenodd" clip-rule="evenodd" d="M0.00390625 4.99974C0.00390625 4.63205 0.301974 4.33398 0.66966 4.33398H11.4237C11.7913 4.33398 12.0894 4.63205 12.0894 4.99974C12.0894 5.36742 11.7913 5.66549 11.4237 5.66549H0.66966C0.301974 5.66549 0.00390625 5.36742 0.00390625 4.99974Z" fill="#1E1F21"/>
</svg>
